{
  "accessors": [
    {
      "bufferView": 2,
      "componentType": 5126,
      "count": 7823,
      "max": [
        2.0424299240112305,
        19.356300354003906,
        3.0470099449157715
      ],
      "min": [
        -7.789030075073242,
        7.190400123596191,
        -5.450940132141113
      ],
      "type": "VEC3"
    },
    {
      "bufferView": 2,
      "byteOffset": 93876,
      "componentType": 5126,
      "count": 7823,
      "max": [
        0.9998850226402283,
        0.9997884631156921,
        0.9999596476554871
      ],
      "min": [
        -0.9998621344566345,
        -0.9955769777297974,
        -0.9974052309989929
      ],
      "type": "VEC3"
    },
    {
      "bufferView": 3,
      "componentType": 5126,
      "count": 7823,
      "max": [
        0.999871551990509,
        0.9956287741661072,
        0.9897843599319458,
        1.0
      ],
      "min": [
        -0.9926602840423584,
        -0.9995041489601135,
        -0.999822735786438,
        1.0
      ],
      "type": "VEC4"
    },
    {
      "bufferView": 1,
      "componentType": 5126,
      "count": 7823,
      "max": [
        0.8900700211524963,
        0.9999319911003113
      ],
      "min": [
        3.7999998312443495e-05,
        4.400000034365803e-05
      ],
      "type": "VEC2"
    },
    {
      "bufferView": 0,
      "componentType": 5125,
      "count": 44358,
      "type": "SCALAR"
    }
  ],
  "asset": {
    "extras": {
      "author": "pixbox (https://sketchfab.com/pixbox)",
      "license": "SKETCHFAB Standard (https://sketchfab.com/licenses)",
      "source": "https://sketchfab.com/3d-models/rock-b222b92dc5a4470da80a0e22050320c5",
      "title": "Rock"
    },
    "generator": "Sketchfab-15.49.0",
    "version": "2.0"
  },
  "bufferViews": [
    {
      "buffer": 0,
      "byteLength": 177432,
      "name": "floatBufferViews",
      "target": 34963
    },
    {
      "buffer": 0,
      "byteLength": 62584,
      "byteOffset": 177432,
      "byteStride": 8,
      "name": "floatBufferViews",
      "target": 34962
    },
    {
      "buffer": 0,
      "byteLength": 187752,
      "byteOffset": 240016,
      "byteStride": 12,
      "name": "floatBufferViews",
      "target": 34962
    },
    {
      "buffer": 0,
      "byteLength": 125168,
      "byteOffset": 427768,
      "byteStride": 16,
      "name": "floatBufferViews",
      "target": 34962
    }
  ],
  "buffers": [
    {
      "byteLength": 552936,
      "uri": "scene.bin"
    }
  ],
  "images": [
    {
      "uri": "textures/rock-lowres_baseColor.jpeg"
    },
    {
      "uri": "textures/rock-lowres_metallicRoughness.png"
    },
    {
      "uri": "textures/rock-lowres_normal.png"
    }
  ],
  "materials": [
    {
      "doubleSided": true,
      "name": "rock-lowres",
      "normalTexture": {
        "index": 2
      },
      "occlusionTexture": {
        "index": 1
      },
      "pbrMetallicRoughness": {
        "baseColorTexture": {
          "index": 0
        },
        "metallicRoughnessTexture": {
          "index": 1
        }
      }
    }
  ],
  "meshes": [
    {
      "name": "Object_0",
      "primitives": [
        {
          "attributes": {
            "NORMAL": 1,
            "POSITION": 0,
            "TANGENT": 2,
            "TEXCOORD_0": 3
          },
          "indices": 4,
          "material": 0,
          "mode": 4
        }
      ]
    }
  ],
  "nodes": [
    {
      "children": [
        1
      ],
      "matrix": [
        0.20276614998204678,
        -0.0567694716454028,
        0.004218277034449645,
        0.0,
        0.013447988349589046,
        0.032604684376364594,
        -0.2076313167206152,
        0.0,
        0.055314715639791956,
        0.20017202120457966,
        0.03501599657507097,
        0.0,
        0.0,
        0.0,
        0.0,
        1.0
      ],
      "name": "Sketchfab_model"
    },
    {
      "children": [
        2
      ],
      "name": "rock.obj.cleaner.materialmerger.gles"
    },
    {
      "mesh": 0,
      "name": "Object_2"
    }
  ],
  "samplers": [
    {
      "magFilter": 9729,
      "minFilter": 9987,
      "wrapS": 10497,
      "wrapT": 10497
    }
  ],
  "scene": 0,
  "scenes": [
    {
      "name": "Sketchfab_Scene",
      "nodes": [
        0
      ]
    }
  ],
  "textures": [
    {
      "sampler": 0,
      "source": 0
    },
    {
      "sampler": 0,
      "source": 1
    },
    {
      "sampler": 0,
      "source": 2
    }
  ]
}
